<?xml version="1.0" encoding="UTF-8"?>
<svg width="130px" height="34px" viewBox="0 0 130 34" version="1.1" xmlns="http://www.w3.org/2000/svg" xmlns:xlink="http://www.w3.org/1999/xlink">
    <title>Group 26</title>
    <g id="Page-1" stroke="none" stroke-width="1" fill="none" fill-rule="evenodd">
        <g id="Desktop-2" transform="translate(-110.000000, -61.000000)">
            <g id="Group-26" transform="translate(110.000000, 61.000000)">
                <path d="M35.7554167,14.3062149 L38.288136,14.3062149 C38.444364,14.3062149 38.570943,14.4327939 38.570943,14.5890219 L38.570943,28.2566974 L35.4304167,28.2566974 L35.4304167,14.6312149 C35.4304167,14.4516096 35.5758114,14.3062149 35.7554167,14.3062149" id="Fill-2" fill="#111B2E"></path>
                <path d="M41.5905351,18.2453289 C41.5905351,18.1170395 41.6766316,18.0052851 41.8009298,17.9722149 C42.2775965,17.8467763 42.8648772,17.72875 43.5633421,17.6175658 C44.3684298,17.4904167 45.214,17.426557 46.0994825,17.426557 C46.9986491,17.426557 47.7467193,17.5440132 48.3442632,17.7789254 C48.9412368,18.0138377 49.4144825,18.3456798 49.7634298,18.7750219 C50.1123772,19.2049342 50.3604035,19.7146711 50.5086491,20.3053728 C50.6557544,20.8960746 50.7298772,21.5534868 50.7298772,22.2781798 L50.7298772,28.2570395 L47.7301842,28.2570395 L47.7301842,22.6402412 C47.7301842,21.674364 47.6024649,20.9895833 47.3475965,20.5870395 C47.0927281,20.1844956 46.6160614,19.9832237 45.9187368,19.9832237 C45.7037807,19.9832237 45.4757105,19.9929167 45.2339561,20.013443 C44.9927719,20.0333991 44.7778158,20.0567763 44.5896579,20.0835746 L44.5896579,28.2570395 L41.5905351,28.2570395 L41.5905351,18.2453289 Z" id="Fill-4" fill="#111B2E"></path>
                <path d="M53.5927851,14.9912807 L56.0023465,14.6029912 C56.1825219,14.5739123 56.3461623,14.7130351 56.3461623,14.8954912 L56.3461623,17.6682544 L59.6719956,17.6682544 C59.8253728,17.6682544 59.9491009,17.7919825 59.9491009,17.9453596 L59.9491009,19.8999211 C59.9491009,20.045886 59.8310746,20.1644825 59.6845395,20.1644825 L56.3461623,20.1644825 L56.3461623,23.8882982 C56.3461623,24.5194825 56.4567763,25.0229474 56.6780044,25.3981228 C56.8992325,25.7738684 57.3456798,25.9620263 58.0167763,25.9620263 C58.3389254,25.9620263 58.6707675,25.931807 59.013443,25.8713684 C59.3555482,25.8109298 59.6674342,25.727114 59.9491009,25.6199211 L60.3721711,27.9547895 C60.0095395,28.1024649 59.6069956,28.2301842 59.1639693,28.3373772 C58.7215132,28.4445702 58.178136,28.4981667 57.5338377,28.4981667 C56.7150658,28.4981667 56.0371272,28.3875526 55.5005921,28.1663246 C54.9634868,27.9445263 54.5341447,27.6360614 54.2119956,27.2403596 C53.8898465,26.8446579 53.6651974,26.3645702 53.5374781,25.8006667 C53.4097588,25.2373333 53.3464693,24.6129912 53.3464693,23.9287807 L53.3464693,15.2803596 C53.3464693,15.1366754 53.4508114,15.0140877 53.5927851,14.9912807" id="Fill-6" fill="#111B2E"></path>
                <path d="M61.4792237,23.0429561 C61.4792237,22.1038772 61.6234781,21.2816842 61.9119868,20.5769474 C62.2004956,19.8722105 62.5796623,19.2855 63.0494868,18.8156754 C63.5193114,18.3458509 64.0592675,17.9900614 64.6699254,17.7488772 C65.2805833,17.5071228 65.9077763,17.3862456 66.5520746,17.3862456 C68.055057,17.3862456 69.2427325,17.845807 70.1151009,18.7649298 C70.9874693,19.6846228 71.4236535,21.0370789 71.4236535,22.8217281 C71.4236535,22.9962018 71.4168114,23.1872105 71.4036974,23.3953246 C71.3900132,23.6034386 71.3768991,23.7876053 71.3632149,23.9489649 L64.5593114,23.9489649 C64.6260219,24.5664649 64.9145307,25.0562456 65.4248377,25.418307 C65.9345746,25.7809386 66.6193553,25.9616842 67.4780395,25.9616842 C68.0282588,25.9616842 68.5682149,25.9115088 69.0990482,25.8111579 C69.6287412,25.7102368 70.0615044,25.5865088 70.3973377,25.4388333 L70.7998816,27.8746228 C70.6385219,27.9550175 70.424136,28.0354123 70.1555833,28.115807 C69.8870307,28.1962018 69.5882588,28.2669035 69.2598377,28.3273421 C68.9308465,28.3877807 68.5784781,28.4379561 68.2027325,28.4784386 C67.8269868,28.5183509 67.4512412,28.5388772 67.0754956,28.5388772 C66.1227325,28.5388772 65.2942675,28.3980439 64.5895307,28.115807 C63.8847939,27.8341404 63.3009342,27.4487018 62.8379518,26.9583509 C62.3749693,26.4685702 62.032864,25.8881316 61.811636,25.2170351 C61.5898377,24.5459386 61.4792237,23.8212456 61.4792237,23.0429561 L61.4792237,23.0429561 Z M68.5248816,21.8957632 C68.5111974,21.6408947 68.467864,21.3922982 68.3943114,21.1505439 C68.3201886,20.9093596 68.2061535,20.6944035 68.0522061,20.5068158 C67.8976886,20.3186579 67.7026886,20.1641404 67.4683465,20.0432632 C67.2334342,19.9229561 66.9415044,19.8625175 66.592557,19.8625175 C66.2567237,19.8625175 65.9682149,19.9195351 65.7270307,20.0335702 C65.4852763,20.1476053 65.2840044,20.2987018 65.1226447,20.4862895 C64.9618553,20.6744474 64.837557,20.8922544 64.7503202,21.1408509 C64.6630833,21.3888772 64.5997939,21.6408947 64.5593114,21.8957632 L68.5248816,21.8957632 Z" id="Fill-8" fill="#111B2E"></path>
                <path d="M80.1794386,20.0343114 C80.1475088,20.19225 79.9918509,20.2931711 79.8350526,20.2566798 C79.6354912,20.2110658 79.4148333,20.1631711 79.1742193,20.114136 C78.8115877,20.0405833 78.4221579,20.0029518 78.0065,20.0029518 C77.8183421,20.0029518 77.593693,20.020057 77.3319825,20.0536974 C77.0702719,20.0873377 76.8724211,20.1238289 76.7384298,20.1643114 L76.7384298,28.2568114 L73.7387368,28.2568114 L73.7387368,18.4292675 C73.7387368,18.3112412 73.8134298,18.2051886 73.9257544,18.1681272 C74.4206667,18.0039167 74.9925526,17.8471184 75.6414123,17.6983026 C76.3723772,17.5306711 77.1877281,17.4468553 78.0868947,17.4468553 C78.2482544,17.4468553 78.4426842,17.4565482 78.6707544,17.4765044 C78.8988246,17.4970307 79.1268947,17.5238289 79.3549649,17.5574693 C79.5830351,17.5911096 79.8111053,17.6310219 80.0397456,17.6783465 C80.1623333,17.7034342 80.2752281,17.731943 80.3784298,17.7627325 C80.518693,17.8049254 80.6036491,17.9463289 80.5745702,18.089443 L80.1794386,20.0343114 Z" id="Fill-10" fill="#111B2E"></path>
                <path d="M91.6041009,15.7959123 C91.7266886,15.7959123 91.8333114,15.876307 91.8675219,15.9937632 C92.0129167,16.493807 92.1714254,17.0485877 92.3424781,17.6581053 C92.5369079,18.3491579 92.7444518,19.0641579 92.9656798,19.8019649 C93.1863377,20.5403421 93.4109868,21.2781491 93.639057,22.0165263 C93.866557,22.7543333 94.0877851,23.439114 94.3021711,24.0697281 C94.4772149,23.3849474 94.65625,22.6402982 94.838136,21.8352105 C95.0200219,21.0301228 95.1922149,20.1982368 95.3535746,19.3389825 C95.5155044,18.4802982 95.6740132,17.6244649 95.8291009,16.7720526 C95.969364,16.0006053 96.1016447,15.2536754 96.2253728,14.5312632 C96.2476096,14.400693 96.3605044,14.3060439 96.4933553,14.3060439 L99.1823026,14.3060439 C99.3596272,14.3060439 99.4930482,14.4685439 99.4576974,14.6424474 C99.001557,16.8689825 98.4804167,19.1257368 97.8959868,21.4127105 C97.2813377,23.8148596 96.6165132,26.0961316 95.9015132,28.2570965 L93.0289693,28.2570965 C92.5602851,26.9685 92.1047149,25.616614 91.6622588,24.2002982 C91.2203728,22.7845526 90.7847588,21.365386 90.356557,19.9427982 C89.9266447,21.365386 89.4967325,22.7845526 89.0668202,24.2002982 C88.6369079,25.616614 88.1864693,26.9685 87.7160746,28.2570965 L84.8458114,28.2570965 C84.1313816,26.0961316 83.4676974,23.8148596 82.8547588,21.4127105 C82.2703289,19.1223158 81.7497588,16.8621404 81.2936184,14.6327544 C81.2594079,14.4639825 81.3888377,14.3060439 81.5610307,14.3060439 L84.3828289,14.3060439 C84.5253728,14.3060439 84.6468202,14.4081053 84.6707675,14.5483684 C84.7944956,15.2656491 84.929057,16.0068772 85.0744518,16.7720526 C85.2363816,17.6244649 85.4045833,18.4802982 85.5801974,19.3389825 C85.7552412,20.1982368 85.9342763,21.0301228 86.1161623,21.8352105 C86.2986184,22.6402982 86.4839254,23.3849474 86.6726535,24.0697281 C86.9144079,23.4123158 87.1498904,22.7144211 87.3785307,21.9760439 C87.6071711,21.2382368 87.8289693,20.4998596 88.0439254,19.7614825 C88.2594518,19.0236754 88.4573026,18.3120965 88.6386184,17.627886 C88.796557,17.0320526 88.9419518,16.4926667 89.0748026,16.0091579 C89.1090132,15.8831491 89.2236184,15.7959123 89.3541886,15.7959123 L91.6041009,15.7959123 Z" id="Fill-12" fill="#111B2E"></path>
                <path d="M104.558715,17.3863026 C105.444197,17.3863026 106.182575,17.4866535 106.773276,17.6879254 C107.363408,17.8897675 107.836654,18.1782763 108.192443,18.5540219 C108.547662,18.9297675 108.79968,19.3859079 108.947355,19.9230132 C109.095031,20.4595482 109.168583,21.0570921 109.168583,21.7145044 L109.168583,27.9550746 C108.739241,28.0491535 108.142268,28.1597675 107.377092,28.2869167 C106.611917,28.414636 105.685952,28.4784956 104.599197,28.4784956 C103.914417,28.4784956 103.293496,28.418057 102.737004,28.2971798 C102.179943,28.1763026 101.700425,27.9784518 101.297882,27.703057 C100.894768,27.4282325 100.585732,27.0690219 100.371346,26.6265658 C100.156961,26.1835395 100.049768,25.6395921 100.049768,24.995864 C100.049768,24.378364 100.173496,23.854943 100.422092,23.4256009 C100.670118,22.9962588 101.001961,22.6541535 101.418189,22.3987149 C101.834417,22.1438465 102.310513,21.9596798 102.847618,21.8450746 C103.384154,21.7316096 103.941215,21.6740219 104.518232,21.6740219 C104.907662,21.6740219 105.253189,21.6911272 105.555382,21.7241974 C105.857004,21.7578377 106.10218,21.8017412 106.289768,21.8553377 L106.289768,21.5736711 C106.289768,21.063364 106.13582,20.6545482 105.826785,20.3455132 C105.51775,20.0370482 104.981215,19.8825307 104.21661,19.8825307 C103.706303,19.8825307 103.202838,19.9195921 102.706785,19.9931447 C102.351566,20.0461711 102.031127,20.1140219 101.744899,20.1978377 C101.570996,20.2485833 101.391961,20.1391096 101.364022,19.9606447 L101.075513,18.1406447 C101.052706,17.99525 101.143364,17.8561272 101.285908,17.8184956 C101.406215,17.7859956 101.541346,17.7529254 101.690162,17.7187149 C101.951873,17.6582763 102.236961,17.6046798 102.545425,17.5573553 C102.854461,17.5106009 103.180031,17.4701184 103.522136,17.4364781 C103.864241,17.4034079 104.209768,17.3863026 104.558715,17.3863026 M104.800469,26.1630132 C105.09525,26.1630132 105.376917,26.1567412 105.645469,26.143057 C105.914022,26.129943 106.128978,26.1099868 106.289768,26.0826184 L106.289768,23.8081886 C106.16889,23.7813904 105.988145,23.7545921 105.74639,23.7272237 C105.504636,23.7004254 105.283408,23.6873114 105.082136,23.6873114 C104.800469,23.6873114 104.535338,23.7044167 104.287311,23.7374868 C104.038715,23.7711272 103.820338,23.8349868 103.63275,23.9284956 C103.444592,24.0225746 103.296917,24.1502939 103.189724,24.3110833 C103.081961,24.472443 103.028934,24.6737149 103.028934,24.9148991 C103.028934,25.3852939 103.186303,25.7102939 103.50161,25.8916096 C103.816917,26.0729254 104.24968,26.1630132 104.800469,26.1630132" id="Fill-14" fill="#111B2E"></path>
                <path d="M118.325601,20.0397851 C118.294241,20.195443 118.140294,20.2935132 117.985206,20.2575921 C117.785075,20.2114079 117.563846,20.1635132 117.321522,20.1139079 C116.95889,20.0403553 116.569461,20.0032939 116.153803,20.0032939 C115.965645,20.0032939 115.740996,20.0203991 115.479285,20.0534693 C115.217575,20.0871096 115.019724,20.1241711 114.885732,20.1640833 L114.885732,28.2565833 L111.886039,28.2565833 L111.886039,18.4393026 C111.886039,18.3150044 111.964724,18.2038202 112.08218,18.1650482 C112.575382,18.0019781 113.143846,17.8463202 113.788715,17.6980746 C114.51968,17.530443 115.335031,17.4466272 116.234768,17.4466272 C116.395557,17.4466272 116.589987,17.4568904 116.818057,17.4768465 C117.046127,17.4968026 117.274197,17.5241711 117.502838,17.5572412 C117.730908,17.5908816 117.958408,17.631364 118.187048,17.6781184 C118.303934,17.702636 118.412268,17.7294342 118.512048,17.7585132 C118.660294,17.8024167 118.749811,17.9523728 118.719022,18.1040395 L118.325601,20.0397851 Z" id="Fill-16" fill="#111B2E"></path>
                <path d="M119.676917,23.0429561 C119.676917,22.1038772 119.821171,21.2816842 120.10968,20.5769474 C120.398189,19.8722105 120.777355,19.2855 121.24718,18.8156754 C121.716434,18.3458509 122.256961,17.9900614 122.867618,17.7488772 C123.478276,17.5071228 124.105469,17.3862456 124.749768,17.3862456 C126.25275,17.3862456 127.440425,17.845807 128.312794,18.7649298 C129.185162,19.6846228 129.621346,21.0370789 129.621346,22.8217281 C129.621346,22.9962018 129.614504,23.1872105 129.60139,23.3953246 C129.597399,23.4574737 129.593408,23.5179123 129.589417,23.5755 C129.574592,23.7864649 129.398978,23.9489649 129.188013,23.9489649 L122.757004,23.9489649 C122.823715,24.5664649 123.112224,25.0562456 123.622531,25.418307 C124.132268,25.7809386 124.817048,25.9616842 125.675732,25.9616842 C126.225952,25.9616842 126.765908,25.9115088 127.296171,25.8111579 C127.668496,25.7404561 127.992355,25.6583509 128.26889,25.5642719 C128.441654,25.5055439 128.62411,25.6167281 128.653759,25.7963333 L128.955382,27.6208947 C128.981039,27.7742719 128.896654,27.9253684 128.751259,27.9818158 C128.634943,28.0262895 128.502662,28.0713333 128.353276,28.115807 C128.084724,28.1962018 127.785952,28.2669035 127.457531,28.3273421 C127.128539,28.3877807 126.776171,28.4379561 126.400425,28.4784386 C126.02468,28.5183509 125.648934,28.5388772 125.273189,28.5388772 C124.320425,28.5388772 123.49139,28.3980439 122.787224,28.115807 C122.082487,27.8341404 121.498627,27.4487018 121.035645,26.9583509 C120.572662,26.4685702 120.230557,25.8881316 120.008759,25.2170351 C119.787531,24.5459386 119.676917,23.8212456 119.676917,23.0429561 L119.676917,23.0429561 Z M126.722575,21.8957632 C126.70889,21.6408947 126.665557,21.3922982 126.591434,21.1505439 C126.517882,20.9093596 126.403846,20.6944035 126.249329,20.5068158 C126.094811,20.3186579 125.900382,20.1641404 125.665469,20.0432632 C125.430557,19.9229561 125.138627,19.8625175 124.79025,19.8625175 C124.454417,19.8625175 124.165908,19.9195351 123.924154,20.0335702 C123.682969,20.1476053 123.481697,20.2987018 123.320338,20.4862895 C123.159548,20.6744474 123.03525,20.8922544 122.948013,21.1408509 C122.860776,21.3888772 122.796917,21.6408947 122.757004,21.8957632 L126.722575,21.8957632 Z" id="Fill-18" fill="#111B2E"></path>
                <path d="M0.378539474,4.20213596 C0.378539474,6.3950307 2.15748684,8.17169737 4.34867105,8.17169737 C6.54042544,8.17169737 8.31709211,6.3950307 8.31709211,4.20213596 C8.31709211,2.01038158 6.54042544,0.233144737 4.34867105,0.233144737 C2.15748684,0.233144737 0.378539474,2.01038158 0.378539474,4.20213596" id="Fill-20" fill="#D9373E"></path>
                <path d="M12.8610482,30.1767632 C12.8610482,30.2024211 12.8576272,30.2269386 12.8513553,30.2503158 C12.8433728,30.2697018 12.8359605,30.2885175 12.8285482,30.3079035 L12.8279781,30.309614 C12.4163114,31.3530351 11.6745132,32.298386 10.6453465,32.7476842 C10.1344693,32.971193 9.57056579,33.0949211 8.97758333,33.0949211 C8.75065351,33.0949211 8.52714474,33.0766754 8.30990789,33.0413246 C8.30990789,33.0413246 8.23977632,33.0304912 8.23863596,33.0299211 C7.91477632,32.974614 7.60745175,32.8919386 7.31552193,32.7853158 C1.78995175,30.761193 1.71354825,20.0333421 1.71354825,19.4454912 L1.71354825,19.4204035 L1.71354825,10.7343509 C1.71354825,10.2719386 2.06363596,9.75478947 2.69253947,9.75478947 C2.79517105,9.75592982 6.15065351,9.75478947 6.33596053,9.75478947 C6.73451316,9.75478947 7.31552193,10.0883421 7.31552193,10.7343509 C7.31552193,10.7343509 7.10056579,19.0993947 7.31552193,22.483386 C7.36797807,23.3261053 7.44837281,24.1807982 7.56525877,25.0035614 C7.81328509,26.767114 8.22894298,28.3818509 8.90859211,29.4001842 C8.90916228,29.4013246 8.91030263,29.4030351 8.91087281,29.4030351 C9.03289035,29.5872018 9.16460088,29.7508421 9.30486404,29.8939561 L9.30600439,29.8945263 C9.68232018,30.2754035 10.13675,30.4857982 10.643636,30.5217193 C10.7263114,30.5302719 10.8106974,30.5251404 10.8950833,30.5251404 C11.4618377,30.5251404 11.9812675,30.3210175 12.3832412,29.9840439 C12.3957851,29.9732105 12.4083289,29.9623772 12.4208728,29.9515439 C12.467057,29.9179035 12.522364,29.8985175 12.5828026,29.8985175 C12.73675,29.8985175 12.8610482,30.023386 12.8610482,30.1767632" id="Fill-22" fill="#111B2E"></path>
                <path d="M24.1979605,9.75490351 C23.7321272,9.75490351 21.4234868,9.75547368 20.5551096,9.75490351 C19.9205044,9.74977193 19.5755482,10.276614 19.5755482,10.7344649 C19.5755482,11.1917456 19.6707675,20.3037193 19.5755482,23.598193 C19.5344956,24.0993772 19.4814693,24.5834561 19.4130482,25.0344649 C19.2283114,26.2649035 18.9335307,27.2524474 18.4768202,27.6800789 C18.4728289,27.6852105 18.3901535,27.7553421 18.3798904,27.7627544 C18.3707675,27.7695965 18.3359868,27.7929737 18.3274342,27.7969649 C18.3166009,27.8043772 18.2379167,27.8454298 18.2253728,27.8505614 C18.1295833,27.8938947 18.0258114,27.9149912 17.9174781,27.9121404 C17.8279605,27.9138509 17.7412939,27.8995965 17.6603289,27.8699474 C17.6586184,27.868807 17.6369518,27.8608246 17.6266886,27.8562632 C17.5149342,27.8095088 17.4088816,27.7319649 17.3113816,27.6293333 C17.3113816,27.6293333 17.3079605,27.6253421 17.3073904,27.6242018 C16.8831798,27.1703421 16.6066447,26.2164386 16.42875,25.0395965 C16.3603289,24.5891579 16.3130044,24.1056491 16.2719518,23.6056053 C16.2719518,23.6056053 16.2457237,10.9824912 16.2457237,10.7344649 C16.2502851,10.3952105 16.0187939,9.75490351 15.2673026,9.75490351 C15.1173465,9.74407018 11.7441886,9.75490351 11.6238816,9.75490351 C11.0092325,9.75490351 10.6448904,10.1831053 10.6448904,10.7344649 C10.6443202,10.9180614 10.6448904,25.1045965 10.6448904,25.1045965 C10.6448904,25.1045965 10.6300658,25.5219649 10.6448904,25.909114 C10.6448904,26.2398158 10.6483114,26.5288947 10.6574342,26.7803421 C10.6580044,26.7843333 10.6580044,26.7883246 10.6580044,26.7923158 C10.656864,26.8196842 10.6540132,26.8470526 10.6540132,26.8744211 C10.6540132,26.9639386 10.663136,27.0506053 10.67625,27.1367018 C10.67625,27.140693 10.6768202,27.1458246 10.6768202,27.1498158 L10.6785307,27.1509561 C10.8108114,27.9702982 11.5195395,28.5963509 12.375943,28.5963509 C12.3770833,28.5963509 12.3782237,28.5963509 12.379364,28.5963509 L12.3879167,28.5963509 C12.8109868,28.5980614 13.4136623,28.5592895 13.4136623,28.5592895 C13.5607675,28.5518772 13.7175658,28.6197281 13.7489254,28.9270526 C13.9593202,30.6427105 14.7758114,32.1012193 16.2457237,32.7460877 C16.7577412,32.9701667 17.3227851,33.0950351 17.9174781,33.0950351 C18.15125,33.0950351 18.3810307,33.0756491 18.6039693,33.0385877 L18.6039693,33.0414386 C18.9455044,32.9872719 19.269364,32.9034561 19.5755482,32.7928421 C24.3005921,31.0874474 25.0572149,23.0337193 25.1775219,20.3168333 L25.1775219,10.7344649 C25.1775219,10.276614 24.7641447,9.74977193 24.1979605,9.75490351" id="Fill-24" fill="#111B2E"></path>
            </g>
        </g>
    </g>
</svg>